<?xml version="1.0" standalone="no"?>
<!DOCTYPE svg PUBLIC "-//W3C//DTD SVG 20010904//EN"
 "http://www.w3.org/TR/2001/REC-SVG-20010904/DTD/svg10.dtd">
<svg version="1.0" xmlns="http://www.w3.org/2000/svg"
 width="1440.000000pt" height="1440.000000pt" viewBox="0 0 1440.000000 1440.000000"
 preserveAspectRatio="xMidYMid meet">
<metadata>
Created by potrace 1.14, written by Peter Selinger 2001-2017
</metadata>
<g transform="translate(0.000000,1440.000000) scale(0.100000,-0.100000)"
fill="#000000" stroke="none">
<path d="M10720 14283 c-423 -30 -637 -107 -826 -297 -163 -165 -242 -341
-274 -616 -6 -58 -14 -111 -16 -117 -2 -10 -17 -8 -56 8 -596 239 -1256 386
-1927 430 -239 15 -849 7 -1056 -15 -847 -90 -1535 -293 -2280 -675 -899 -461
-1666 -1108 -2279 -1925 -723 -963 -1148 -2043 -1272 -3236 -21 -208 -30 -842
-15 -1066 40 -575 134 -1053 311 -1584 263 -789 702 -1558 1251 -2195 591
-684 1301 -1234 2104 -1630 727 -359 1420 -555 2225 -631 233 -21 712 -29 955
-15 1027 60 1925 328 2829 844 974 556 1825 1392 2398 2357 546 920 835 1857
899 2915 14 236 6 737 -16 970 -55 591 -195 1185 -400 1705 -24 63 -43 115
-41 117 2 2 62 12 133 23 176 25 242 44 348 95 263 127 439 355 499 648 47
228 49 261 53 1427 5 1308 -2 1501 -68 1760 -74 289 -304 532 -596 629 -79 27
-271 58 -437 71 -115 9 -2322 12 -2446 3z m1322 -1125 c23 -13 56 -43 73 -66
l30 -44 5 -436 5 -437 435 -5 c471 -5 465 -5 516 -62 79 -86 75 -238 -8 -315
-55 -52 -65 -53 -522 -53 l-425 0 -3 -439 -3 -439 -30 -43 c-96 -137 -299
-123 -378 25 -21 40 -22 51 -25 469 l-4 427 -421 0 c-473 0 -470 0 -534 73
-95 108 -53 286 79 341 32 14 101 16 458 16 l420 0 0 383 c0 210 5 411 10 446
13 94 62 154 148 182 43 14 128 3 174 -23z m-4641 -2298 c462 -47 876 -242
1231 -579 406 -386 668 -921 729 -1488 15 -147 7 -551 -15 -693 -22 -138 -79
-371 -121 -484 -263 -729 -833 -1269 -1512 -1435 -179 -44 -288 -56 -503 -55
-352 1 -612 58 -909 200 -695 333 -1168 1025 -1266 1853 -21 171 -21 529 0
686 90 688 461 1286 1033 1669 383 256 863 373 1333 326z m404 -5854 c1187
-115 2191 -519 2850 -1148 152 -145 339 -370 423 -509 l22 -37 -127 -122
c-579 -560 -1265 -969 -2063 -1228 -768 -250 -1550 -331 -2327 -242 -1166 133
-2263 628 -3095 1396 -82 76 -160 153 -174 172 l-26 34 57 85 c125 183 325
404 510 562 702 601 1715 968 2900 1050 201 14 850 6 1050 -13z"/>
</g>
</svg>
